<svg width="431" height="182" viewBox="0 0 431 182" fill="none" xmlns="http://www.w3.org/2000/svg">
<path d="M365.861 38.6244C358.326 46.4891 344.58 60.9181 339.43 66.6012C338.067 68.1049 337.564 69.9696 337.837 71.9013L339.138 81.1143C339.524 83.8429 341.036 86.3373 343.421 88.0324C354.938 96.218 373.703 108.208 378.714 106.166C384.307 103.887 381.089 96.6975 378.781 93.3868C383.153 89.8411 387.243 85.0724 386.759 80.3449C385.82 71.1661 375.575 93.8149 386.759 64.9356C392.872 49.1511 386.757 14.8192 365.861 38.6244Z" fill="#A3B63A"/>
<path d="M371.991 97.9356C373.856 96.9368 376.363 95.349 378.781 93.3868M378.781 93.3868C383.153 89.8411 387.243 85.0724 386.759 80.3449C385.82 71.1661 375.575 93.8149 386.759 64.9356C392.872 49.1511 386.757 14.8192 365.861 38.6244C358.326 46.4891 344.58 60.9181 339.43 66.6012C338.067 68.1049 337.564 69.9696 337.837 71.9013L339.138 81.1143C339.524 83.8429 341.036 86.3373 343.421 88.0324C354.938 96.218 373.703 108.208 378.714 106.166C384.307 103.887 381.089 96.6975 378.781 93.3868Z" stroke="#2F2F2F" stroke-width="3" stroke-linecap="round"/>
<path d="M55.1942 42.2181C62.7304 50.0829 76.4754 64.5119 81.6256 70.1951C82.9884 71.6988 83.4914 73.5634 83.2187 75.4951L81.9178 84.708C81.5327 87.4362 80.0198 89.9305 77.6347 91.6256C66.1172 99.8123 47.353 111.802 42.3419 109.759C36.7495 107.481 39.9667 100.291 42.2744 96.9811C37.9026 93.4354 33.8133 88.6657 34.2972 83.9388C35.2365 74.7599 45.4818 97.4092 34.2967 68.5294C28.1834 52.7449 34.2988 18.4129 55.1942 42.2181Z" fill="#A3B63A"/>
<path d="M49.0642 101.53C47.1991 100.531 44.6935 98.9433 42.2744 96.9811M42.2744 96.9811C37.9026 93.4354 33.8133 88.6657 34.2972 83.9388C35.2365 74.7599 45.4818 97.4092 34.2967 68.5294C28.1834 52.7449 34.2988 18.4129 55.1942 42.2181C62.7304 50.0829 76.4754 64.5119 81.6256 70.1951C82.9884 71.6988 83.4914 73.5634 83.2187 75.4951L81.9178 84.708C81.5327 87.4362 80.0198 89.9305 77.6347 91.6256C66.1172 99.8123 47.3532 111.802 42.3419 109.759C36.7495 107.481 39.9667 100.291 42.2744 96.9811Z" stroke="#2F2F2F" stroke-width="3" stroke-linecap="round"/>
<path d="M395.308 50.6399C383.321 57.9331 361.367 68.3519 353.615 72.3405C351.743 73.3041 350.687 74.9322 350.398 76.8694L349.51 82.8085L349.003 86.1961L348.463 89.8029C348.055 92.5418 348.813 95.3183 350.64 97.5272C361.421 110.557 380.204 131.031 387.042 130.035C394.523 128.945 393.214 119.478 391.625 114.88C398.095 111.933 404.658 107.453 405.746 101.699C407.858 90.5281 386.861 96.6851 410.392 65.6243C423.254 48.6479 407.248 43.3767 395.308 50.6399Z" fill="url(#paint0_linear_4213_3664)"/>
<path d="M395.308 50.6399C383.321 57.9331 361.367 68.3519 353.615 72.3405C351.743 73.3041 350.687 74.9322 350.398 76.8694L349.51 82.8085L349.003 86.1961L348.463 89.8029C348.055 92.5418 348.813 95.3183 350.64 97.5272C361.421 110.557 380.204 131.031 387.042 130.035C394.523 128.945 393.214 119.478 391.625 114.88C398.095 111.933 404.658 107.453 405.746 101.699C407.858 90.5281 386.861 96.6851 410.392 65.6243C423.254 48.6479 407.248 43.3767 395.308 50.6399Z" fill="url(#paint1_linear_4213_3664)"/>
<path d="M395.308 50.6399C383.321 57.9331 361.367 68.3519 353.615 72.3405C351.743 73.3041 350.687 74.9322 350.398 76.8694L349.51 82.8085L349.003 86.1961L348.463 89.8029C348.055 92.5418 348.813 95.3183 350.64 97.5272C361.421 110.557 380.204 131.031 387.042 130.035C394.523 128.945 393.214 119.478 391.625 114.88C398.095 111.933 404.658 107.453 405.746 101.699C407.858 90.5281 386.861 96.6851 410.392 65.6243C423.254 48.6479 407.248 43.3767 395.308 50.6399Z" fill="url(#paint2_linear_4213_3664)"/>
<path d="M381.914 118.32C384.493 117.673 388.045 116.511 391.625 114.88M391.625 114.88C398.095 111.933 404.658 107.453 405.746 101.699C407.858 90.5281 386.861 96.6851 410.392 65.6243C423.254 48.6479 407.248 43.3767 395.308 50.6399C383.321 57.9331 361.367 68.3519 353.615 72.3405C351.743 73.3041 350.687 74.9322 350.398 76.8694L349.51 82.8085M391.625 114.88C393.214 119.478 394.523 128.945 387.042 130.035C380.204 131.031 361.421 110.557 350.64 97.5272C348.813 95.3183 348.055 92.5418 348.463 89.8029L349.003 86.1961M349.51 82.8085L382.803 76.8999M349.51 82.8085L349.003 86.1961M349.003 86.1961L368.797 91.3403M376.069 93.5438L382.803 95.4975" stroke="#2F2F2F" stroke-width="3" stroke-linecap="round"/>
<path d="M25.7446 44.2043C37.7323 51.4976 59.6867 61.9164 67.4374 65.9049C69.31 66.8685 70.3657 68.4967 70.6553 70.4339L71.5435 76.373L72.05 79.7604L72.5894 83.3677C72.999 86.1063 72.241 88.8827 70.4128 91.0917C59.6314 104.121 40.8488 124.596 34.011 123.599C26.5297 122.509 27.8388 113.043 29.4285 108.445C22.9587 105.498 16.3953 101.017 15.3077 95.2639C13.1961 84.0926 34.1916 90.2495 10.6608 59.1887C-2.20023 42.2124 13.8055 36.9412 25.7446 44.2043Z" fill="url(#paint3_linear_4213_3664)"/>
<path d="M25.7446 44.2043C37.7323 51.4976 59.6867 61.9164 67.4374 65.9049C69.31 66.8685 70.3657 68.4967 70.6553 70.4339L71.5435 76.373L72.05 79.7604L72.5894 83.3677C72.999 86.1063 72.241 88.8827 70.4128 91.0917C59.6314 104.121 40.8488 124.596 34.011 123.599C26.5297 122.509 27.8388 113.043 29.4285 108.445C22.9587 105.498 16.3953 101.017 15.3077 95.2639C13.1961 84.0926 34.1916 90.2495 10.6608 59.1887C-2.20023 42.2124 13.8055 36.9412 25.7446 44.2043Z" fill="url(#paint4_linear_4213_3664)"/>
<path d="M25.7446 44.2043C37.7323 51.4976 59.6867 61.9164 67.4374 65.9049C69.31 66.8685 70.3657 68.4967 70.6553 70.4339L71.5435 76.373L72.05 79.7604L72.5894 83.3677C72.999 86.1063 72.241 88.8827 70.4128 91.0917C59.6314 104.121 40.8488 124.596 34.011 123.599C26.5297 122.509 27.8388 113.043 29.4285 108.445C22.9587 105.498 16.3953 101.017 15.3077 95.2639C13.1961 84.0926 34.1916 90.2495 10.6608 59.1887C-2.20023 42.2124 13.8055 36.9412 25.7446 44.2043Z" fill="url(#paint5_linear_4213_3664)"/>
<path d="M39.1393 111.884C36.5602 111.237 33.0086 110.075 29.4285 108.445M29.4285 108.445C22.9587 105.498 16.3953 101.017 15.3077 95.2639C13.1961 84.0926 34.1916 90.2495 10.6608 59.1887C-2.20023 42.2124 13.8055 36.9412 25.7446 44.2043C37.7323 51.4976 59.6867 61.9164 67.4374 65.9049C69.31 66.8685 70.3657 68.4967 70.6553 70.4339L71.5434 76.373M29.4285 108.445C27.8388 113.043 26.5297 122.509 34.011 123.599C40.8488 124.596 59.6314 104.121 70.4128 91.0917C72.241 88.8827 72.999 86.1063 72.5894 83.3677L72.05 79.7604M71.5434 76.373L38.2503 70.4643M71.5434 76.373L72.05 79.7604M72.05 79.7604L52.2559 84.9047M44.9843 87.1083L38.2503 89.0619" stroke="#2F2F2F" stroke-width="3" stroke-linecap="round"/>
<path d="M62.5977 52.8286C62.5977 31.4986 81.6344 14.207 105.118 14.207H314.201C337.685 14.207 356.721 31.4986 356.721 52.8286V105.935C356.721 127.265 337.685 144.557 314.201 144.557H105.118C81.6344 144.557 62.5977 127.265 62.5977 105.935V52.8286Z" fill="#FF9E70"/>
<path d="M62.5977 52.8286C62.5977 31.4986 81.6344 14.207 105.118 14.207H314.201C337.685 14.207 356.721 31.4986 356.721 52.8286V105.935C356.721 127.265 337.685 144.557 314.201 144.557H105.118C81.6344 144.557 62.5977 127.265 62.5977 105.935V52.8286Z" fill="url(#paint6_linear_4213_3664)"/>
<path d="M62.5977 52.8286C62.5977 31.4986 81.6344 14.207 105.118 14.207H314.201C337.685 14.207 356.721 31.4986 356.721 52.8286V105.935C356.721 127.265 337.685 144.557 314.201 144.557H105.118C81.6344 144.557 62.5977 127.265 62.5977 105.935V52.8286Z" fill="url(#paint7_linear_4213_3664)"/>
<path d="M62.5977 52.8286C62.5977 31.4986 81.6344 14.207 105.118 14.207H314.201C337.685 14.207 356.721 31.4986 356.721 52.8286V105.935C356.721 127.265 337.685 144.557 314.201 144.557H105.118C81.6344 144.557 62.5977 127.265 62.5977 105.935V52.8286Z" stroke="#2F2F2F" stroke-width="3" stroke-linecap="round" stroke-linejoin="round"/>
<path d="M109.557 133.289C93.2493 133.289 80.0293 121.281 80.0293 106.469M125.356 133.289H137.01" stroke="#2F2F2F" stroke-width="3" stroke-linecap="round" stroke-linejoin="round"/>
<path fill-rule="evenodd" clip-rule="evenodd" d="M294.098 27.7297C294.098 26.0695 295.477 24.9683 297.756 25.1046C313.728 25.1052 337.436 22.0717 338.738 41.6799L339.444 52.3206C339.581 54.3906 337.845 56.1698 335.566 56.2947C333.287 56.4194 331.329 54.8425 331.19 52.7725L330.484 42.1319C329.614 29.0022 308.326 31.3567 297.756 30.5011C295.477 30.3648 294.098 29.244 294.098 27.7297Z" fill="white" stroke="#2F2F2F" stroke-width="3" stroke-linejoin="round"/>
<path d="M94.0285 80.9626V47.3829H83V40.3789H113.077V47.3829H102.019V80.9626H94.0285Z" fill="black"/>
<path d="M115.773 43.2453C115.773 40.7986 117.625 39 119.9 39C122.174 39 124.026 40.7986 124.026 43.2453C124.026 45.6367 122.174 47.4928 119.9 47.4928C117.625 47.4928 115.773 45.6367 115.773 43.2453ZM116.038 50.8112H123.762V80.9597H116.038V50.8112Z" fill="black"/>
<path d="M128.896 50.8163H136.356V56.2451H136.514C138.127 52.3914 141.011 50.3672 145.377 50.3672C151.671 50.3672 155.217 54.5837 155.217 61.6496V80.9714H147.493V63.3597C147.493 59.4219 145.772 57.1654 142.256 57.1654C138.739 57.1654 136.621 59.8644 136.621 63.8022V80.9581H128.896V50.8163Z" fill="black"/>
<path d="M177.757 50.8141H186.513L175.693 63.7513L187.04 80.9626H178.152L170.037 68.7001L168.027 71.0075V80.9626H160.303V40.3789H168.027V62.9062H168.133L177.757 50.8141Z" fill="black"/>
<path d="M213.814 71.742C212.967 77.6199 207.835 81.5024 200.877 81.5024C192.2 81.5024 186.91 75.6245 186.91 66.0344C186.91 56.4443 192.227 50.2832 200.586 50.2832C208.813 50.2832 214.051 56.1058 214.051 65.2734V67.7776H194.503V68.2842C194.503 72.5295 197.121 75.4276 201.01 75.4276C203.788 75.4276 206.004 74.0206 206.724 71.742H213.814ZM194.582 62.7404H206.618C206.46 58.8888 204.079 56.3558 200.667 56.3558C197.306 56.358 194.847 58.9795 194.582 62.7404Z" fill="black"/>
<path d="M218.02 50.8184H225.48V56.2473H225.64C226.618 52.5064 229.052 50.4534 232.384 50.4534C233.127 50.4343 233.868 50.5388 234.581 50.7631V57.9905C233.957 57.7096 232.887 57.5127 231.776 57.5127C227.966 57.5127 225.742 59.986 225.742 64.2335V80.9669H218.018L218.02 50.8184Z" fill="black"/>
<path d="M264.629 80.9626V62.4859H243.679V80.9626H238.918V40.3789H243.679V57.9287H264.629V40.3789H269.392V80.9626H264.629Z" fill="black"/>
<path d="M298.679 80.961H294.309V76.0941H294.209C292.517 79.4965 289.712 81.2397 285.469 81.2397C279.464 81.2397 275.947 77.1051 275.947 70.4683V51.7129H280.55V69.5923C280.55 74.3464 282.631 76.8927 286.899 76.8927C291.368 76.8927 294.067 73.6318 294.067 68.6543V51.7129H298.67L298.679 80.961Z" fill="black"/>
<path d="M309.366 76.0093H309.26V80.9581H304.869V40.3789H309.472V56.4664H309.578C311.297 53.2608 314.497 51.4335 318.386 51.4335C325.318 51.4335 330 57.4066 330 66.3374C330 75.2682 325.318 81.2435 318.307 81.2435C314.287 81.2435 311.139 79.3874 309.366 76.0093ZM309.445 66.333C309.445 72.6335 312.672 76.9075 317.408 76.9075C322.144 76.9075 325.291 72.775 325.291 66.333C325.291 59.8909 322.169 55.7584 317.408 55.7584C312.647 55.7584 309.445 60.0657 309.445 66.3374V66.333Z" fill="black"/>
<path d="M103.436 92.0996C102.586 92.0996 101.854 92.3389 101.238 92.8174C100.633 93.2959 100.135 93.9551 99.7441 94.7949C99.3633 95.625 99.0801 96.5771 98.8945 97.6514C98.7188 98.7158 98.6309 99.8389 98.6309 101.021C98.6309 102.856 98.8311 104.438 99.2314 105.767C99.6416 107.095 100.218 108.12 100.96 108.843C101.702 109.556 102.576 109.912 103.582 109.912C104.188 109.912 104.759 109.834 105.296 109.678C105.833 109.521 106.326 109.331 106.775 109.106V111.216C106.307 111.489 105.784 111.689 105.208 111.816C104.632 111.953 104.002 112.021 103.318 112.021C101.863 112.021 100.604 111.582 99.5391 110.703C98.4746 109.824 97.6543 108.564 97.0781 106.924C96.502 105.273 96.2139 103.296 96.2139 100.991C96.2139 99.4775 96.3555 98.0566 96.6387 96.7285C96.9316 95.4004 97.3711 94.2285 97.957 93.2129C98.5527 92.1973 99.2998 91.4062 100.198 90.8398C101.097 90.2637 102.151 89.9756 103.362 89.9756C104.065 89.9756 104.739 90.0684 105.384 90.2539C106.038 90.4297 106.663 90.6885 107.259 91.0303L106.424 93.0078C105.975 92.7246 105.501 92.5049 105.003 92.3486C104.505 92.1826 103.982 92.0996 103.436 92.0996ZM118.611 111.729H110.188V90.3125H118.611V92.3926H112.518V99.4971H118.245V101.592H112.518V109.604H118.611V111.729ZM130.755 111.729L129.144 104.844H124.061L122.449 111.729H119.959L125.13 90.3125H127.957L133.23 111.729H130.755ZM128.704 102.69L127.063 95.4248C126.995 95.0635 126.927 94.7119 126.858 94.3701C126.8 94.0186 126.741 93.6816 126.683 93.3594C126.634 93.0273 126.585 92.7051 126.536 92.3926C126.507 92.7051 126.468 93.0273 126.419 93.3594C126.37 93.6914 126.312 94.0283 126.243 94.3701C126.175 94.7021 126.102 95.0439 126.023 95.3955L124.427 102.69H128.704ZM135.442 111.729V90.3125H137.771V109.604H143.748V111.729H135.442Z" fill="black"/>
<defs>
<linearGradient id="paint0_linear_4213_3664" x1="390.904" y1="18.9656" x2="364.845" y2="108.984" gradientUnits="userSpaceOnUse">
<stop stop-color="#FFC9DB"/>
<stop offset="0.713144" stop-color="#DD4F7F"/>
</linearGradient>
<linearGradient id="paint1_linear_4213_3664" x1="381.487" y1="50.4132" x2="422.564" y2="103.564" gradientUnits="userSpaceOnUse">
<stop stop-color="#F98EB2"/>
<stop offset="1" stop-color="#DD4F7F"/>
</linearGradient>
<linearGradient id="paint2_linear_4213_3664" x1="395.757" y1="116.018" x2="401.607" y2="71.3583" gradientUnits="userSpaceOnUse">
<stop stop-color="#A2B53A"/>
<stop offset="1" stop-color="#C4BF3B"/>
</linearGradient>
<linearGradient id="paint3_linear_4213_3664" x1="30.1492" y1="12.5301" x2="56.209" y2="102.548" gradientUnits="userSpaceOnUse">
<stop stop-color="#FFC9DB"/>
<stop offset="0.713144" stop-color="#DD4F7F"/>
</linearGradient>
<linearGradient id="paint4_linear_4213_3664" x1="39.5659" y1="43.9776" x2="-1.51036" y2="97.1284" gradientUnits="userSpaceOnUse">
<stop stop-color="#F98EB2"/>
<stop offset="1" stop-color="#DD4F7F"/>
</linearGradient>
<linearGradient id="paint5_linear_4213_3664" x1="25.2961" y1="109.583" x2="19.446" y2="64.9228" gradientUnits="userSpaceOnUse">
<stop stop-color="#A2B53A"/>
<stop offset="1" stop-color="#C4BF3B"/>
</linearGradient>
<linearGradient id="paint6_linear_4213_3664" x1="145.437" y1="125.159" x2="183.117" y2="-40.0633" gradientUnits="userSpaceOnUse">
<stop stop-color="#FE6742"/>
<stop offset="1" stop-color="#FFB944"/>
</linearGradient>
<linearGradient id="paint7_linear_4213_3664" x1="147.317" y1="122.385" x2="143.934" y2="50.8637" gradientUnits="userSpaceOnUse">
<stop stop-color="#A2B53A"/>
<stop offset="1" stop-color="#C4BF3B"/>
</linearGradient>
</defs>
</svg>
